<svg 
 xmlns="http://www.w3.org/2000/svg"
 xmlns:xlink="http://www.w3.org/1999/xlink"
 width="22px" height="17px">
<defs>
<filter id="Filter_0">
    <feFlood flood-color="rgb(109, 108, 108)" flood-opacity="1" result="floodOut" />
    <feComposite operator="atop" in="floodOut" in2="SourceGraphic" result="compOut" />
    <feBlend mode="normal" in="compOut" in2="SourceGraphic" />
</filter>

</defs>
<g filter="url(#Filter_0)">
<path fill-rule="evenodd"  fill="rgb(89, 89, 89)"
 d="M20.455,16.937 L18.655,16.937 L18.55,16.937 L18.36,16.937 L18.36,16.935 C17.382,16.925 16.855,16.394 16.855,15.737 C16.855,15.74 17.392,14.537 18.55,14.537 L18.655,14.537 C18.986,14.537 19.255,14.269 19.255,13.937 L19.255,5.537 C19.255,5.206 18.986,4.937 18.655,4.937 L15.655,4.937 L14.660,4.937 L13.958,4.234 L12.260,2.537 L9.449,2.537 L7.752,4.234 L7.49,4.937 L6.55,4.937 L3.55,4.937 C2.723,4.937 2.455,5.206 2.455,5.537 L2.455,13.937 C2.455,14.269 2.723,14.537 3.55,14.537 L3.655,14.537 C4.317,14.537 4.855,15.74 4.855,15.737 C4.855,16.400 4.317,16.937 3.655,16.937 L3.55,16.937 L1.255,16.937 C0.592,16.937 0.55,16.400 0.55,15.737 L0.55,3.737 C0.55,3.74 0.592,2.537 1.255,2.537 L6.55,2.537 L8.103,0.489 C8.328,0.264 8.633,0.137 8.952,0.137 L12.757,0.137 C13.76,0.137 13.381,0.264 13.606,0.489 L15.655,2.537 L20.455,2.537 C21.117,2.537 21.655,3.74 21.655,3.737 L21.655,15.737 C21.655,16.400 21.117,16.937 20.455,16.937 ZM10.855,6.137 C13.506,6.137 15.655,8.286 15.655,10.937 C15.655,13.588 13.506,15.737 10.855,15.737 C8.204,15.737 6.55,13.588 6.55,10.937 C6.55,8.286 8.204,6.137 10.855,6.137 ZM10.855,13.337 C12.178,13.337 13.255,12.260 13.255,10.937 C13.255,9.614 12.178,8.537 10.855,8.537 C9.531,8.537 8.455,9.614 8.455,10.937 C8.455,12.260 9.531,13.337 10.855,13.337 Z"/>
</g>
</svg>