<svg 
 xmlns="http://www.w3.org/2000/svg"
 xmlns:xlink="http://www.w3.org/1999/xlink"
 width="32px" height="32px">
<path fill-rule="evenodd"  fill="rgb(255, 255, 255)"
 d="M30.328,13.721 L27.678,13.279 C27.373,11.965 26.852,10.736 26.154,9.626 L27.630,7.560 C28.193,6.772 28.104,5.693 27.419,5.8 L26.991,4.580 C26.306,3.895 25.227,3.806 24.439,4.368 L22.372,5.844 C21.263,5.147 20.34,4.626 18.720,4.321 L18.278,1.671 C18.117,0.706 17.283,0.0 16.305,0.0 L15.694,0.0 C14.716,0.0 13.882,0.706 13.721,1.671 L13.279,4.321 C11.965,4.626 10.736,5.147 9.626,5.844 L7.560,4.368 C6.772,3.806 5.693,3.895 5.8,4.580 L4.580,5.8 C3.895,5.693 3.806,6.772 4.368,7.560 L5.844,9.626 C5.147,10.736 4.626,11.965 4.321,13.279 L1.671,13.721 C0.706,13.882 0.0,14.716 0.0,15.694 L0.0,16.305 C0.0,17.283 0.706,18.117 1.671,18.278 L4.321,18.720 C4.626,20.34 5.147,21.263 5.844,22.372 L4.368,24.439 C3.806,25.227 3.895,26.306 4.580,26.991 L5.8,27.419 C5.693,28.104 6.772,28.193 7.560,27.630 L9.626,26.154 C10.736,26.852 11.965,27.373 13.279,27.678 L13.721,30.328 C13.882,31.293 14.716,31.999 15.694,31.999 L16.305,31.999 C17.283,31.999 18.117,31.293 18.278,30.328 L18.720,27.678 C20.34,27.373 21.263,26.852 22.372,26.154 L24.439,27.630 C25.227,28.193 26.306,28.104 26.991,27.419 L27.419,26.991 C28.104,26.306 28.193,25.227 27.630,24.439 L26.154,22.372 C26.852,21.263 27.373,20.34 27.678,18.720 L30.328,18.278 C31.293,18.117 32.0,17.283 32.0,16.305 L32.0,15.694 C32.0,14.716 31.293,13.882 30.328,13.721 ZM15.999,21.999 C12.686,21.999 9.999,19.313 9.999,15.999 C9.999,12.686 12.686,9.999 15.999,9.999 C19.313,9.999 21.999,12.686 21.999,15.999 C21.999,19.313 19.313,21.999 15.999,21.999 Z"/>
</svg>