<svg 
 xmlns="http://www.w3.org/2000/svg"
 xmlns:xlink="http://www.w3.org/1999/xlink"
 width="22px" height="17px">
<path fill-rule="evenodd"  fill="rgb(109, 108, 108)"
 d="M10.855,16.937 C6.940,16.937 3.25,14.137 0.55,8.537 C3.25,2.937 6.940,0.137 10.855,0.137 C14.770,0.137 18.685,2.937 21.655,8.537 C18.685,14.137 14.770,16.937 10.855,16.937 ZM10.855,2.537 C8.8,2.537 5.120,4.707 2.811,8.537 C5.120,12.367 8.8,14.537 10.855,14.537 C13.701,14.537 16.589,12.367 18.899,8.537 C16.589,4.707 13.701,2.537 10.855,2.537 ZM10.855,10.937 C9.529,10.937 8.455,9.863 8.455,8.537 C8.455,7.212 9.529,6.137 10.855,6.137 C12.180,6.137 13.255,7.212 13.255,8.537 C13.255,9.863 12.180,10.937 10.855,10.937 Z"/>
</svg>