<svg 
 xmlns="http://www.w3.org/2000/svg"
 xmlns:xlink="http://www.w3.org/1999/xlink"
 width="17px" height="21px">
<defs>
<filter id="Filter_0">
    <feFlood flood-color="rgb(109, 108, 108)" flood-opacity="1" result="floodOut" />
    <feComposite operator="atop" in="floodOut" in2="SourceGraphic" result="compOut" />
    <feBlend mode="normal" in="compOut" in2="SourceGraphic" />
</filter>

</defs>
<g filter="url(#Filter_0)">
<path fill-rule="evenodd"  fill="rgb(89, 89, 89)"
 d="M9.44,20.36 C8.889,20.103 8.724,20.137 8.560,20.137 C8.524,20.137 8.490,20.130 8.455,20.126 C8.420,20.130 8.385,20.137 8.350,20.137 C8.185,20.137 8.20,20.103 7.865,20.36 C6.78,19.261 0.55,15.922 0.55,9.293 C0.55,4.681 3.815,0.943 8.455,0.937 C13.95,0.943 16.855,4.681 16.855,9.293 C16.855,15.922 10.831,19.261 9.44,20.36 ZM8.455,3.337 C5.145,3.343 2.455,6.12 2.455,9.293 C2.455,14.199 6.809,16.833 8.349,17.611 C8.381,17.595 8.420,17.574 8.455,17.556 C8.489,17.574 8.528,17.595 8.561,17.611 C10.100,16.833 14.455,14.199 14.455,9.293 C14.455,6.12 11.764,3.343 8.455,3.337 ZM8.455,11.737 C7.129,11.737 6.55,10.662 6.55,9.337 C6.55,8.11 7.129,6.937 8.455,6.937 C9.780,6.937 10.855,8.11 10.855,9.337 C10.855,10.662 9.780,11.737 8.455,11.737 Z"/>
</g>
</svg>