<svg 
 xmlns="http://www.w3.org/2000/svg"
 xmlns:xlink="http://www.w3.org/1999/xlink"
 width="20px" height="15px">
<path fill-rule="evenodd"  fill="rgb(71, 174, 119)"
 d="M18.726,0.916 L1.264,0.916 C0.568,0.916 0.4,1.480 0.4,2.176 L0.4,4.422 L0.4,13.717 C0.4,14.413 0.568,14.977 1.264,14.977 L18.726,14.977 C19.422,14.977 19.986,14.413 19.986,13.717 L19.986,4.422 L19.986,2.176 C19.986,1.480 19.422,0.916 18.726,0.916 ZM17.78,2.959 L9.999,8.193 L2.921,2.959 L17.78,2.959 ZM17.997,12.409 C17.997,12.757 17.715,13.39 17.367,13.39 L2.632,13.39 C2.284,13.39 2.2,12.757 2.2,12.409 L2.2,5.652 L9.365,10.750 C9.561,10.867 9.780,10.925 9.999,10.925 C10.218,10.925 10.438,10.867 10.633,10.750 L17.997,5.652 L17.997,12.409 Z"/>
</svg>