<svg 
 xmlns="http://www.w3.org/2000/svg"
 xmlns:xlink="http://www.w3.org/1999/xlink"
 width="22px" height="21px">
<defs>
<filter id="Filter_0">
    <feFlood flood-color="rgb(109, 108, 108)" flood-opacity="1" result="floodOut" />
    <feComposite operator="atop" in="floodOut" in2="SourceGraphic" result="compOut" />
    <feBlend mode="normal" in="compOut" in2="SourceGraphic" />
</filter>

</defs>
<g filter="url(#Filter_0)">
<path fill-rule="evenodd"  fill="rgb(89, 89, 89)"
 d="M21.649,14.148 L21.649,18.932 C21.649,19.595 21.112,20.132 20.449,20.132 L1.246,20.132 C0.583,20.132 0.46,19.595 0.46,18.932 L0.46,2.128 C0.46,1.466 0.583,0.928 1.246,0.928 L20.449,0.928 C21.112,0.928 21.649,1.466 21.649,2.128 L21.649,14.148 C21.649,14.148 21.649,14.148 21.649,14.148 ZM19.249,17.131 L19.249,14.604 L15.653,11.8 L8.929,17.732 L18.649,17.732 C18.980,17.732 19.249,17.463 19.249,17.131 ZM18.649,3.329 L3.46,3.329 C2.715,3.329 2.446,3.597 2.446,3.929 L2.446,16.531 L2.446,17.131 C2.446,17.463 2.715,17.732 3.46,17.732 L3.646,17.732 L5.564,17.732 L14.746,8.550 C14.766,8.527 14.773,8.498 14.795,8.476 C15.29,8.242 15.337,8.129 15.645,8.132 C15.954,8.129 16.264,8.242 16.500,8.478 C16.526,8.505 16.536,8.539 16.559,8.567 L19.249,11.257 L19.249,3.929 C19.249,3.597 18.980,3.329 18.649,3.329 ZM7.247,10.530 C5.921,10.530 4.846,9.456 4.846,8.130 C4.846,6.804 5.921,5.729 7.247,5.729 C8.573,5.729 9.647,6.804 9.647,8.130 C9.647,9.456 8.573,10.530 7.247,10.530 Z"/>
</g>
</svg>