<svg 
 xmlns="http://www.w3.org/2000/svg"
 xmlns:xlink="http://www.w3.org/1999/xlink"
 width="36px" height="32px">
<path fill-rule="evenodd"  fill="rgb(255, 255, 255)"
 d="M33.999,23.999 L29.999,23.999 L29.999,29.999 C29.999,31.104 29.104,31.999 27.999,31.999 L7.999,31.999 C6.895,31.999 6.0,31.104 6.0,29.999 L6.0,23.999 L1.999,23.999 C0.895,23.999 0.0,23.104 0.0,21.999 L0.0,5.999 C0.0,4.895 0.895,3.999 1.999,3.999 L9.999,3.999 L9.999,1.999 C9.999,0.895 10.895,0.0 11.999,0.0 L23.999,0.0 C25.104,0.0 25.999,0.895 25.999,1.999 L25.999,3.999 L29.999,3.999 L31.999,3.999 L33.999,3.999 C35.104,3.999 35.999,4.895 35.999,5.999 L35.999,7.999 L35.999,9.999 L35.999,21.999 C35.999,23.104 35.104,23.999 33.999,23.999 ZM9.999,27.999 L25.999,27.999 L25.999,23.999 L25.999,21.999 L25.999,19.999 L9.999,19.999 L9.999,21.999 L9.999,23.999 L9.999,27.999 ZM31.999,9.999 L31.999,8.999 C31.999,8.447 31.552,7.999 30.999,7.999 L29.999,7.999 L4.999,7.999 C4.447,7.999 3.999,8.447 3.999,8.999 L3.999,18.999 C3.999,19.552 4.447,19.999 4.999,19.999 L6.0,19.999 L6.0,17.999 C6.0,16.895 6.895,15.999 7.999,15.999 L9.999,15.999 L25.999,15.999 L27.999,15.999 C29.104,15.999 29.999,16.895 29.999,17.999 L29.999,19.999 L30.999,19.999 C31.552,19.999 31.999,19.552 31.999,18.999 L31.999,9.999 Z"/>
</svg>