<svg 
 xmlns="http://www.w3.org/2000/svg"
 xmlns:xlink="http://www.w3.org/1999/xlink"
 width="32px" height="32px">
<path fill-rule="evenodd"  fill="rgb(255, 255, 255)"
 d="M27.199,11.999 L26.920,11.999 C27.603,10.822 28.0,9.458 28.0,7.999 C28.0,3.581 24.418,0.0 19.999,0.0 C15.581,0.0 11.999,3.581 11.999,7.999 C7.581,7.999 3.999,11.581 3.999,15.999 C3.999,17.458 4.396,18.821 5.78,19.999 L4.799,19.999 C1.950,21.276 0.0,24.10 0.0,26.926 L0.0,29.999 C0.0,30.700 1.107,31.999 1.937,31.999 L22.249,31.999 C23.79,31.999 24.0,30.700 24.0,29.999 L24.0,26.926 C24.0,25.908 23.750,24.918 23.320,23.999 L30.250,23.999 C31.79,23.999 31.999,22.700 31.999,21.999 L31.999,18.926 C31.999,16.9 30.49,13.275 27.199,11.999 ZM19.999,3.999 C22.205,3.999 24.0,5.793 24.0,7.999 C24.0,10.205 22.205,11.999 19.999,11.999 C19.577,11.999 19.178,11.915 18.796,11.794 C18.143,10.742 17.257,9.855 16.205,9.203 C16.83,8.821 15.999,8.421 15.999,7.999 C15.999,5.793 17.794,3.999 19.999,3.999 ZM11.999,11.999 C14.209,11.999 15.999,13.790 15.999,15.999 C15.999,18.208 14.209,19.999 11.999,19.999 C10.22,19.999 8.391,18.562 8.68,16.676 C8.25,16.457 7.999,16.232 7.999,15.999 C7.999,13.790 9.790,11.999 11.999,11.999 ZM19.999,27.999 L3.999,27.999 L3.999,26.926 C3.999,25.840 4.712,24.711 5.797,23.999 L9.937,23.999 L18.202,23.999 C19.287,24.711 19.999,25.840 19.999,26.926 L19.999,27.999 ZM28.0,19.999 L19.199,19.999 L18.920,19.999 C19.603,18.821 19.999,17.458 19.999,15.999 L26.202,15.999 C27.286,16.711 28.0,17.840 28.0,18.926 L28.0,19.999 Z"/>
</svg>