<svg 
 xmlns="http://www.w3.org/2000/svg"
 xmlns:xlink="http://www.w3.org/1999/xlink"
 width="22px" height="15px">
<defs>
<filter id="Filter_0">
    <feFlood flood-color="rgb(109, 108, 108)" flood-opacity="1" result="floodOut" />
    <feComposite operator="atop" in="floodOut" in2="SourceGraphic" result="compOut" />
    <feBlend mode="normal" in="compOut" in2="SourceGraphic" />
</filter>

</defs>
<g filter="url(#Filter_0)">
<path fill-rule="evenodd"  fill="rgb(89, 89, 89)"
 d="M20.456,13.537 C20.317,13.537 20.174,13.510 20.33,13.452 L14.455,11.157 L14.455,13.537 C14.455,14.200 13.917,14.737 13.255,14.737 L1.255,14.737 C0.592,14.737 0.55,14.200 0.55,13.537 L0.55,1.537 C0.55,0.874 0.592,0.337 1.255,0.337 L13.255,0.337 C13.917,0.337 14.455,0.874 14.455,1.537 L14.455,3.917 L20.33,1.622 C20.174,1.564 20.317,1.537 20.456,1.537 C21.91,1.537 21.655,2.101 21.655,2.855 L21.655,12.220 C21.655,12.974 21.91,13.537 20.456,13.537 ZM12.55,3.937 L12.55,3.337 C12.55,3.6 11.786,2.737 11.455,2.737 L10.855,2.737 L3.55,2.737 C2.723,2.737 2.455,3.6 2.455,3.337 L2.455,11.737 C2.455,12.68 2.723,12.337 3.55,12.337 L11.455,12.337 C11.786,12.337 12.55,12.68 12.55,11.737 L12.55,10.170 L12.55,4.904 L12.55,3.937 ZM19.255,4.538 L14.455,6.512 L14.455,8.562 L19.255,10.537 L19.255,4.538 Z"/>
</g>
</svg>